<svg width="34" height="40" viewBox="0 0 34 40" fill="none" xmlns="http://www.w3.org/2000/svg">
<path d="M16.9707 40C15.767 38.5379 14.2517 37.5992 12.3492 37.3001C11.9788 37.242 11.6084 37.217 11.2381 37.2087C9.59651 37.2004 7.96345 37.2087 6.32194 37.2087C5.32019 37.2087 4.3437 37.0426 3.41772 36.6521C1.77621 35.946 0.757618 34.7082 0.277795 33.0218C0.08418 32.324 0 31.6096 0 30.8951C0 20.6521 0 10.4091 0 0.174455C0 0.124611 0 0.066459 0 0H33.9499C33.9499 0.0581516 33.9583 0.107996 33.9583 0.15784C33.9583 10.4507 33.9583 20.7352 33.9583 31.028C33.9583 32.1495 33.7563 33.2378 33.2428 34.243C32.5272 35.6552 31.3487 36.5026 29.8251 36.918C29.1095 37.109 28.3856 37.2004 27.6448 37.2004C26.0285 37.2004 24.4038 37.2004 22.7876 37.2004C20.9861 37.2004 19.3867 37.7736 18.023 38.9367C17.6694 39.2357 17.3664 39.5929 17.0381 39.9252C17.0212 39.9418 17.0128 39.9668 17.0044 39.9917H16.9707V40ZM17.0128 38.513C17.0128 38.513 17.0381 38.4714 17.0549 38.4465C18.6375 36.9927 20.5147 36.2368 22.6782 36.2201C24.3028 36.2035 25.9275 36.2201 27.5522 36.2201C28.2088 36.2201 28.857 36.1537 29.4968 35.9792C30.8015 35.622 31.8033 34.891 32.3926 33.6615C32.805 32.7975 32.9481 31.8671 32.9481 30.92C32.9481 21.0093 32.9481 11.0986 32.9481 1.17965C32.9481 1.1215 32.9481 1.06334 32.9481 0.996885H1.01017V1.22949C1.01017 11.1153 1.01017 20.9927 1.01017 30.8785C1.01017 31.4019 1.06909 31.9335 1.17853 32.4486C1.47316 33.811 2.19711 34.8827 3.45981 35.5556C4.30161 36.0042 5.21918 36.1952 6.162 36.2118C7.86244 36.2285 9.56291 36.2118 11.2549 36.2201C12.9469 36.2201 14.5042 36.7103 15.8932 37.6656C16.272 37.9232 16.6172 38.2222 16.996 38.5213L17.0128 38.513Z" fill="black"/>
<path d="M31.4024 18.977H27.3386V17.3435H31.4023C31.7324 17.3435 31.9999 17.0759 31.9999 16.7459V11.56C31.9999 11.2299 31.7324 10.9624 31.4023 10.9624H2.5976C2.26754 10.9624 2 11.2299 2 11.56V16.7459C2 17.0759 2.26754 17.3435 2.5976 17.3435H6.66136V18.977H2.5976C2.26754 18.977 2 19.2446 2 19.5746V21.7126C2 22.0426 2.26754 22.3102 2.5976 22.3102H6.66136V25.8427H6.48212C6.15206 25.8427 5.88452 26.1103 5.88452 26.4403C5.88452 26.7704 6.15206 27.0379 6.48212 27.0379H8.03591C8.36596 27.0379 8.6335 26.7704 8.6335 26.4403C8.6335 26.1103 8.36596 25.8427 8.03591 25.8427H7.85655V22.3102H26.1433V25.8427H25.9641C25.634 25.8427 25.3665 26.1103 25.3665 26.4403C25.3665 26.7704 25.634 27.0379 25.9641 27.0379H27.5179C27.8479 27.0379 28.1155 26.7704 28.1155 26.4403C28.1155 26.1103 27.8479 25.8427 27.5179 25.8427H27.3386V22.3102H31.4024C31.7325 22.3102 32 22.0427 32 21.7126V19.5746C32 19.2446 31.7325 18.977 31.4024 18.977ZM3.19525 16.1483V12.1576H30.8047V16.1482H3.19525V16.1483ZM26.1433 18.977H7.85655V17.3435H26.1433V18.977ZM30.8047 21.1151H3.19525V20.1722H30.8047L30.8047 21.1151Z" fill="black"/>
<path d="M7.25971 13.4722C6.92965 13.4722 6.66211 13.7397 6.66211 14.0698V14.249C6.66211 14.5791 6.92965 14.8466 7.25971 14.8466C7.58976 14.8466 7.8573 14.5791 7.8573 14.249V14.0698C7.85736 13.7396 7.58982 13.4722 7.25971 13.4722Z" fill="black"/>
<path d="M26.7402 13.4722C26.4101 13.4722 26.1426 13.7397 26.1426 14.0698V14.249C26.1426 14.5791 26.4101 14.8466 26.7402 14.8466C27.0702 14.8466 27.3378 14.5791 27.3378 14.249V14.0698C27.3378 13.7396 27.0702 13.4722 26.7402 13.4722Z" fill="black"/>
</svg>
