<svg width="15" height="14" viewBox="0 0 15 14" fill="currentColor" xmlns="http://www.w3.org/2000/svg">
<path d="M7.50065 10.3334C8.97338 10.3334 10.1673 9.13944 10.1673 7.66671H8.83398C8.83398 8.40311 8.23705 9.00004 7.50065 9.00004C6.76425 9.00004 6.16732 8.40311 6.16732 7.66671H4.83398C4.83398 9.13944 6.02789 10.3334 7.50065 10.3334ZM3.83398 0.333374C2.17713 0.333374 0.833984 1.67652 0.833984 3.33337C0.833984 4.23823 1.23479 5.04892 1.86688 5.59838C1.62988 6.24377 1.50065 6.94071 1.50065 7.66671C1.50065 10.9804 4.18694 13.6667 7.50065 13.6667C10.8144 13.6667 13.5007 10.9804 13.5007 7.66671C13.5007 6.94071 13.3715 6.24377 13.1345 5.59838C13.7665 5.04892 14.1673 4.23823 14.1673 3.33337C14.1673 1.67652 12.8242 0.333374 11.1673 0.333374C10.0831 0.333374 9.13432 0.908307 8.60738 1.76869C8.24832 1.70168 7.87832 1.66671 7.50065 1.66671C7.12298 1.66671 6.75298 1.70168 6.39392 1.76869C5.86698 0.908307 4.91822 0.333374 3.83398 0.333374ZM2.16732 3.33337C2.16732 2.4129 2.91351 1.66671 3.83398 1.66671C4.5542 1.66671 5.16934 2.12389 5.40178 2.76601L5.61372 3.35149L6.21232 3.17998C6.62072 3.06294 7.05278 3.00004 7.50065 3.00004C7.94852 3.00004 8.38058 3.06294 8.78898 3.17998L9.38758 3.35149L9.59952 2.76601C9.83198 2.12389 10.4471 1.66671 11.1673 1.66671C12.0878 1.66671 12.834 2.4129 12.834 3.33337C12.834 3.95538 12.4936 4.49873 11.9857 4.78577L11.4434 5.09225L11.7124 5.65409C12.0038 6.26264 12.1673 6.94464 12.1673 7.66671C12.1673 10.244 10.078 12.3334 7.50065 12.3334C4.92332 12.3334 2.83398 10.244 2.83398 7.66671C2.83398 6.94464 2.99751 6.26264 3.28892 5.65409L3.55795 5.09225L3.01564 4.78577C2.50774 4.49874 2.16732 3.95538 2.16732 3.33337Z" fill="currentColor"/>
</svg>
