<svg width="15" height="14" viewBox="0 0 15 14" fill="none" xmlns="http://www.w3.org/2000/svg">
<path d="M10.834 3.00004H14.1673V4.33337H12.834V13C12.834 13.3682 12.5355 13.6667 12.1673 13.6667H2.83398C2.4658 13.6667 2.16732 13.3682 2.16732 13V4.33337H0.833984V3.00004H4.16732V1.00004C4.16732 0.631854 4.4658 0.333374 4.83398 0.333374H10.1673C10.5355 0.333374 10.834 0.631854 10.834 1.00004V3.00004ZM11.5007 4.33337H3.50065V12.3334H11.5007V4.33337ZM5.50065 6.33337H6.83398V10.3334H5.50065V6.33337ZM8.16732 6.33337H9.50065V10.3334H8.16732V6.33337ZM5.50065 1.66671V3.00004H9.50065V1.66671H5.50065Z" fill="#06080A"/>
</svg>
