<svg width="13" height="15" viewBox="0 0 13 15" fill="none" xmlns="http://www.w3.org/2000/svg">
<path d="M2.5 4.66663C2.5 2.45749 4.29086 0.666626 6.5 0.666626C8.70913 0.666626 10.5 2.45749 10.5 4.66663C10.5 4.84139 10.4887 5.01376 10.4669 5.18301C11.68 5.86938 12.5 7.17163 12.5 8.66663C12.5 10.8758 10.7091 12.6666 8.5 12.6666H7.16667V14.6666H5.83333V12.6666H4.16667C2.14162 12.6666 0.5 11.025 0.5 8.99996C0.5 7.52416 1.37141 6.25307 2.62732 5.67132C2.54423 5.3503 2.5 5.01355 2.5 4.66663ZM3.17309 6.88789C2.38117 7.26116 1.83333 8.06716 1.83333 8.99996C1.83333 10.2886 2.878 11.3333 4.16667 11.3333H8.5C9.97273 11.3333 11.1667 10.1394 11.1667 8.66663C11.1667 7.53703 10.4641 6.56988 9.4696 6.18152L8.9086 5.96244C9.02713 5.53554 9.16667 5.11451 9.16667 4.66663C9.16667 3.19387 7.97273 1.99996 6.5 1.99996C5.02724 1.99996 3.83333 3.19387 3.83333 4.66663C3.83333 5.53851 4.25107 6.31265 4.90013 6.80029L4.09923 7.86629C3.73845 7.59523 3.42477 7.26416 3.17309 6.88789Z" fill="currentColor"/>
</svg>
