<svg width="15" height="14" viewBox="0 0 15 14" fill="currentColor" xmlns="http://www.w3.org/2000/svg">
<path d="M7.50065 0.333374C11.1825 0.333374 14.1673 3.31814 14.1673 7.00004C14.1673 10.6819 11.1825 13.6667 7.50065 13.6667C3.81875 13.6667 0.833984 10.6819 0.833984 7.00004C0.833984 3.31814 3.81875 0.333374 7.50065 0.333374ZM7.74465 7.91071L5.43204 11.9174C6.06814 12.1853 6.76712 12.3334 7.50065 12.3334C7.80878 12.3334 8.11078 12.3072 8.40458 12.2571C8.23292 11.0422 8.39472 9.77344 8.92758 8.59451L7.74465 7.91071ZM10.0897 9.26497C9.73525 10.1045 9.61205 10.9962 9.69858 11.8604C10.5122 11.4923 11.2165 10.9259 11.7503 10.2231L10.0897 9.26497ZM5.40635 6.56151C4.65165 7.61271 3.63352 8.38731 2.49642 8.84664C2.85098 9.80904 3.47539 10.6403 4.2776 11.2497L6.58998 7.24404L5.40635 6.56151ZM12.8084 6.47411L12.6365 6.55524C11.9138 6.91251 11.2659 7.43657 10.7563 8.11024L12.4177 9.06931C12.6858 8.43304 12.834 7.73384 12.834 7.00004C12.834 6.82257 12.8253 6.64711 12.8084 6.47411ZM2.16732 7.00004C2.16732 7.17751 2.17598 7.35297 2.19292 7.52597C2.98482 7.16897 3.6951 6.61664 4.24462 5.89037L2.58333 4.93143C2.31541 5.56753 2.16732 6.26651 2.16732 7.00004ZM10.7237 2.75039L8.41132 6.75604L9.59445 7.43924C10.3494 6.38751 11.3679 5.61256 12.5055 5.15317C12.1762 4.26049 11.6141 3.47952 10.8929 2.88439L10.7237 2.75039ZM7.50065 1.66671C7.19232 1.66671 6.89005 1.69287 6.59605 1.74311C6.76838 2.95836 6.60652 4.22724 6.07342 5.40625L7.25665 6.08937L9.56925 2.08272C8.93318 1.8148 8.23418 1.66671 7.50065 1.66671ZM5.30274 2.13974L5.17524 2.19901C4.41576 2.56755 3.75689 3.111 3.251 3.77699L4.91137 4.7357C5.26597 3.89606 5.38928 3.00409 5.30274 2.13974Z" fill="currentColor"/>
</svg>
