<svg width="15" height="13" viewBox="0 0 15 13" fill="none" xmlns="http://www.w3.org/2000/svg">
<path d="M9.80368 5.45006L9.70895 5.35535C9.27675 4.93868 8.73595 4.6225 8.11501 4.45612C6.17721 3.93689 4.31629 5.03519 3.78725 7.00957C3.75869 7.11617 3.74317 7.23584 3.71835 7.53677C3.6155 8.78351 3.32234 9.71317 2.51842 10.6562C4.02499 11.2485 5.80983 11.6658 7.16708 11.6658C8.81281 11.6658 10.2756 10.5596 10.7077 8.94684C11.0531 7.65797 10.6669 6.34544 9.80368 5.45006ZM8.35841 3.14205L11.6512 0.580987C11.9166 0.374573 12.2941 0.39808 12.5319 0.63582L14.528 2.63195C14.7658 2.86969 14.7893 3.24725 14.5829 3.51265L12.0225 6.80457C12.2179 7.59677 12.2217 8.44811 11.9956 9.29197C11.3969 11.5265 9.37548 12.9991 7.16708 12.9991C4.83268 12.9991 1.83268 11.9978 0.166016 10.9978C2.8192 8.99784 2.1975 7.79104 2.49935 6.66451C3.20497 4.03109 5.72751 2.49294 8.35841 3.14205ZM10.6337 4.39445C10.6775 4.43675 10.7206 4.4798 10.7628 4.52359L11.5191 5.27993L13.1691 3.15861L12.0053 1.99477L9.88395 3.64469L10.6337 4.39445Z" fill="#06080A"/>
</svg>
