<svg width="13" height="14" viewBox="0 0 13 14" fill="currentColor" xmlns="http://www.w3.org/2000/svg">
<path d="M8.64855 9.3386L7.17341 12.4387C7.07848 12.6382 6.83981 12.7229 6.64035 12.628C6.59588 12.6069 6.55568 12.5777 6.52181 12.5419L4.16087 10.0494C4.09767 9.98267 4.01343 9.93973 3.92231 9.92787L0.518121 9.48287C0.299068 9.45427 0.144708 9.25347 0.173341 9.0344C0.179721 8.9856 0.195074 8.93833 0.218614 8.89507L1.85955 5.87947C1.90348 5.79873 1.91827 5.70533 1.90144 5.61502L1.27268 2.23994C1.23222 2.02276 1.37548 1.81391 1.59266 1.77345C1.64108 1.76443 1.69075 1.76443 1.73917 1.77345L5.11426 2.40221C5.20461 2.41903 5.29801 2.40425 5.37868 2.36032L8.39428 0.719381C8.58835 0.613787 8.83128 0.685501 8.93681 0.879541C8.96041 0.922807 8.97575 0.970047 8.98208 1.01889L9.42708 4.42308C9.43901 4.5142 9.48195 4.59844 9.54861 4.66163L12.0411 7.02253C12.2015 7.17447 12.2084 7.42767 12.0565 7.58807C12.0226 7.6238 11.9824 7.653 11.9379 7.67413L8.83788 9.14933C8.75488 9.1888 8.68801 9.25567 8.64855 9.3386ZM9.17974 10.6233L10.1225 9.68053L12.951 12.5089L12.0082 13.4517L9.17974 10.6233Z" fill="currentColor"/>
</svg>
