<svg width="102" height="40" viewBox="0 0 102 40" fill="none" xmlns="http://www.w3.org/2000/svg">
<path d="M16.9707 40C15.767 38.5379 14.2517 37.5992 12.3492 37.3001C11.9788 37.242 11.6084 37.217 11.2381 37.2087C9.59651 37.2004 7.96345 37.2087 6.32194 37.2087C5.32019 37.2087 4.3437 37.0426 3.41772 36.6521C1.77621 35.946 0.757618 34.7082 0.277795 33.0218C0.08418 32.324 0 31.6096 0 30.8951C0 20.6521 0 10.4091 0 0.174455C0 0.124611 0 0.066459 0 0H33.9499C33.9499 0.0581516 33.9583 0.107996 33.9583 0.15784C33.9583 10.4507 33.9583 20.7352 33.9583 31.028C33.9583 32.1495 33.7563 33.2378 33.2428 34.243C32.5272 35.6552 31.3487 36.5026 29.8251 36.918C29.1095 37.109 28.3856 37.2004 27.6448 37.2004C26.0285 37.2004 24.4038 37.2004 22.7876 37.2004C20.9861 37.2004 19.3867 37.7736 18.023 38.9367C17.6694 39.2357 17.3664 39.5929 17.0381 39.9252C17.0212 39.9418 17.0128 39.9668 17.0044 39.9917H16.9707V40ZM17.0128 38.513C17.0128 38.513 17.0381 38.4714 17.0549 38.4465C18.6375 36.9927 20.5147 36.2368 22.6782 36.2201C24.3028 36.2035 25.9275 36.2201 27.5522 36.2201C28.2088 36.2201 28.857 36.1537 29.4968 35.9792C30.8015 35.622 31.8033 34.891 32.3926 33.6615C32.805 32.7975 32.9481 31.8671 32.9481 30.92C32.9481 21.0093 32.9481 11.0986 32.9481 1.17965C32.9481 1.1215 32.9481 1.06334 32.9481 0.996885H1.01017V1.22949C1.01017 11.1153 1.01017 20.9927 1.01017 30.8785C1.01017 31.4019 1.06909 31.9335 1.17853 32.4486C1.47316 33.811 2.19711 34.8827 3.45981 35.5556C4.30161 36.0042 5.21918 36.1952 6.162 36.2118C7.86244 36.2285 9.56291 36.2118 11.2549 36.2201C12.9469 36.2201 14.5042 36.7103 15.8932 37.6656C16.272 37.9232 16.6172 38.2222 16.996 38.5213L17.0128 38.513Z" fill="black"/>
<path d="M41.4862 10H40.2205L42.5249 3.45455H43.9886L46.2962 10H45.0305L43.2823 4.79688H43.2312L41.4862 10ZM41.5277 7.43359H44.9794V8.38601H41.5277V7.43359ZM51.3675 3.45455V4.44851H48.344V10H47.1583V3.45455H51.3675ZM52.3702 10V3.45455H56.6273V4.44851H53.5559V6.2255H56.4068V7.21946H53.5559V9.00604H56.6529V10H52.3702ZM57.837 10V3.45455H59.0227V6.2255H62.0558V3.45455H63.2447V10H62.0558V7.21946H59.0227V10H57.837ZM64.2466 4.44851V3.45455H69.4689V4.44851H67.4458V10H66.2697V4.44851H64.2466ZM75.7883 5.663H74.593C74.5589 5.46697 74.496 5.29332 74.4044 5.14205C74.3128 4.98864 74.1988 4.85866 74.0624 4.75213C73.926 4.6456 73.7705 4.5657 73.5958 4.51243C73.4232 4.45703 73.2368 4.42933 73.0365 4.42933C72.6807 4.42933 72.3653 4.51882 72.0905 4.6978C71.8156 4.87464 71.6004 5.13459 71.4449 5.47763C71.2893 5.81854 71.2116 6.23509 71.2116 6.72727C71.2116 7.22798 71.2893 7.64986 71.4449 7.9929C71.6025 8.33381 71.8177 8.59162 72.0905 8.76634C72.3653 8.93892 72.6796 9.02521 73.0333 9.02521C73.2293 9.02521 73.4126 8.99964 73.583 8.94851C73.7556 8.89524 73.9101 8.81747 74.0464 8.7152C74.1849 8.61293 74.301 8.48722 74.3948 8.33807C74.4907 8.18892 74.5567 8.01847 74.593 7.8267L75.7883 7.8331C75.7435 8.14418 75.6466 8.43608 75.4974 8.70881C75.3504 8.98153 75.1576 9.2223 74.9189 9.43111C74.6803 9.63778 74.4012 9.79972 74.0816 9.9169C73.762 10.032 73.4072 10.0895 73.0173 10.0895C72.442 10.0895 71.9285 9.95632 71.4768 9.68999C71.0251 9.42365 70.6693 9.03906 70.4094 8.53622C70.1494 8.03338 70.0194 7.4304 70.0194 6.72727C70.0194 6.02202 70.1505 5.41903 70.4126 4.91832C70.6746 4.41548 71.0315 4.03089 71.4832 3.76456C71.9349 3.49822 72.4463 3.36506 73.0173 3.36506C73.3817 3.36506 73.7204 3.41619 74.0336 3.51847C74.3469 3.62074 74.626 3.77095 74.871 3.96911C75.116 4.16513 75.3174 4.40589 75.4751 4.69141C75.6349 4.97479 75.7393 5.29865 75.7883 5.663ZM76.5865 4.44851V3.45455H81.8088V4.44851H79.7857V10H78.6096V4.44851H76.5865ZM82.8155 10V3.45455H85.3212C85.7942 3.45455 86.1873 3.52912 86.5005 3.67827C86.8159 3.82528 87.0513 4.02663 87.2069 4.28232C87.3645 4.538 87.4434 4.82777 87.4434 5.15163C87.4434 5.41797 87.3922 5.64595 87.29 5.83558C87.1877 6.02308 87.0502 6.17543 86.8777 6.29261C86.7051 6.4098 86.5123 6.49396 86.2992 6.5451V6.60902C86.5314 6.6218 86.7541 6.69318 86.9672 6.82315C87.1824 6.95099 87.3581 7.1321 87.4945 7.36648C87.6309 7.60085 87.699 7.88423 87.699 8.21662C87.699 8.5554 87.617 8.86009 87.4529 9.13068C87.2889 9.39915 87.0417 9.61115 86.7115 9.76669C86.3812 9.92223 85.9657 10 85.465 10H82.8155ZM84.0012 9.00923H85.2765C85.7069 9.00923 86.0169 8.9272 86.2065 8.76314C86.3983 8.59695 86.4941 8.38388 86.4941 8.12393C86.4941 7.93004 86.4462 7.75533 86.3503 7.59979C86.2544 7.44212 86.1181 7.31854 85.9412 7.22905C85.7644 7.13743 85.5534 7.09162 85.3084 7.09162H84.0012V9.00923ZM84.0012 6.23828H85.1742C85.3787 6.23828 85.563 6.20099 85.7271 6.12642C85.8912 6.04972 86.0201 5.94212 86.1138 5.80362C86.2097 5.663 86.2576 5.4968 86.2576 5.30504C86.2576 5.05149 86.1681 4.84268 85.9892 4.67862C85.8123 4.51456 85.5492 4.43253 85.1998 4.43253H84.0012V6.23828ZM94.5793 6.72727C94.5793 7.43253 94.4472 8.03658 94.183 8.53942C93.9209 9.04013 93.5629 9.42365 93.1091 9.68999C92.6574 9.95632 92.145 10.0895 91.5718 10.0895C90.9987 10.0895 90.4852 9.95632 90.0313 9.68999C89.5796 9.42152 89.2217 9.03693 88.9575 8.53622C88.6954 8.03338 88.5644 7.4304 88.5644 6.72727C88.5644 6.02202 88.6954 5.41903 88.9575 4.91832C89.2217 4.41548 89.5796 4.03089 90.0313 3.76456C90.4852 3.49822 90.9987 3.36506 91.5718 3.36506C92.145 3.36506 92.6574 3.49822 93.1091 3.76456C93.5629 4.03089 93.9209 4.41548 94.183 4.91832C94.4472 5.41903 94.5793 6.02202 94.5793 6.72727ZM93.3872 6.72727C93.3872 6.23082 93.3094 5.81214 93.1539 5.47124C93.0004 5.1282 92.7874 4.86932 92.5146 4.6946C92.2419 4.51776 91.9276 4.42933 91.5718 4.42933C91.216 4.42933 90.9017 4.51776 90.629 4.6946C90.3563 4.86932 90.1421 5.1282 89.9866 5.47124C89.8332 5.81214 89.7565 6.23082 89.7565 6.72727C89.7565 7.22372 89.8332 7.64347 89.9866 7.98651C90.1421 8.32741 90.3563 8.58629 90.629 8.76314C90.9017 8.93786 91.216 9.02521 91.5718 9.02521C91.9276 9.02521 92.2419 8.93786 92.5146 8.76314C92.7874 8.58629 93.0004 8.32741 93.1539 7.98651C93.3094 7.64347 93.3872 7.22372 93.3872 6.72727ZM40.2205 22.5788V20.0316H40.6584C40.8054 19.9144 40.9428 19.7493 41.0707 19.5362C41.1985 19.3232 41.3072 19.0312 41.3967 18.6605C41.4862 18.2898 41.5479 17.8104 41.582 17.2223L41.7546 14.4545H45.9382V20.0316H46.6669V22.5724H45.5291V21H41.3583V22.5788H40.2205ZM42.0391 20.0316H44.8004V15.4485H42.8221L42.7198 17.2223C42.6921 17.6676 42.6474 18.0661 42.5856 18.4176C42.5238 18.7692 42.446 19.0792 42.3523 19.3477C42.2585 19.614 42.1541 19.842 42.0391 20.0316ZM47.6329 21V14.4545H50.1386C50.6116 14.4545 51.0047 14.5291 51.3179 14.6783C51.6333 14.8253 51.8687 15.0266 52.0242 15.2823C52.1819 15.538 52.2607 15.8278 52.2607 16.1516C52.2607 16.418 52.2096 16.646 52.1073 16.8356C52.0051 17.0231 51.8676 17.1754 51.695 17.2926C51.5225 17.4098 51.3296 17.494 51.1166 17.5451V17.609C51.3488 17.6218 51.5715 17.6932 51.7845 17.8232C51.9997 17.951 52.1755 18.1321 52.3119 18.3665C52.4482 18.6009 52.5164 18.8842 52.5164 19.2166C52.5164 19.5554 52.4344 19.8601 52.2703 20.1307C52.1063 20.3991 51.8591 20.6112 51.5289 20.7667C51.1986 20.9222 50.7831 21 50.2824 21H47.6329ZM48.8186 20.0092H50.0938C50.5242 20.0092 50.8343 19.9272 51.0239 19.7631C51.2156 19.5969 51.3115 19.3839 51.3115 19.1239C51.3115 18.93 51.2636 18.7553 51.1677 18.5998C51.0718 18.4421 50.9355 18.3185 50.7586 18.229C50.5818 18.1374 50.3708 18.0916 50.1258 18.0916H48.8186V20.0092ZM48.8186 17.2383H49.9916C50.1961 17.2383 50.3804 17.201 50.5445 17.1264C50.7085 17.0497 50.8374 16.9421 50.9312 16.8036C51.0271 16.663 51.075 16.4968 51.075 16.305C51.075 16.0515 50.9855 15.8427 50.8066 15.6786C50.6297 15.5146 50.3666 15.4325 50.0171 15.4325H48.8186V17.2383ZM59.3967 17.7273C59.3967 18.4325 59.2646 19.0366 59.0004 19.5394C58.7383 20.0401 58.3803 20.4237 57.9265 20.69C57.4748 20.9563 56.9624 21.0895 56.3892 21.0895C55.8161 21.0895 55.3026 20.9563 54.8487 20.69C54.397 20.4215 54.0391 20.0369 53.7749 19.5362C53.5128 19.0334 53.3817 18.4304 53.3817 17.7273C53.3817 17.022 53.5128 16.419 53.7749 15.9183C54.0391 15.4155 54.397 15.0309 54.8487 14.7646C55.3026 14.4982 55.8161 14.3651 56.3892 14.3651C56.9624 14.3651 57.4748 14.4982 57.9265 14.7646C58.3803 15.0309 58.7383 15.4155 59.0004 15.9183C59.2646 16.419 59.3967 17.022 59.3967 17.7273ZM58.2045 17.7273C58.2045 17.2308 58.1268 16.8121 57.9712 16.4712C57.8178 16.1282 57.6048 15.8693 57.332 15.6946C57.0593 15.5178 56.745 15.4293 56.3892 15.4293C56.0334 15.4293 55.7191 15.5178 55.4464 15.6946C55.1737 15.8693 54.9595 16.1282 54.804 16.4712C54.6506 16.8121 54.5739 17.2308 54.5739 17.7273C54.5739 18.2237 54.6506 18.6435 54.804 18.9865C54.9595 19.3274 55.1737 19.5863 55.4464 19.7631C55.7191 19.9379 56.0334 20.0252 56.3892 20.0252C56.745 20.0252 57.0593 19.9379 57.332 19.7631C57.6048 19.5863 57.8178 19.3274 57.9712 18.9865C58.1268 18.6435 58.2045 18.2237 58.2045 17.7273ZM60.5177 21V14.4545H62.9722C63.4751 14.4545 63.8969 14.5483 64.2378 14.7358C64.5809 14.9233 64.8398 15.1811 65.0145 15.5092C65.1913 15.8352 65.2797 16.206 65.2797 16.6214C65.2797 17.0412 65.1913 17.4141 65.0145 17.7401C64.8376 18.0661 64.5766 18.3228 64.2314 18.5103C63.8863 18.6957 63.4612 18.7884 62.9562 18.7884H61.3295V17.8136H62.7964C63.0905 17.8136 63.3312 17.7624 63.5187 17.6602C63.7062 17.5579 63.8447 17.4173 63.9342 17.2383C64.0258 17.0593 64.0716 16.8537 64.0716 16.6214C64.0716 16.3892 64.0258 16.1847 63.9342 16.0078C63.8447 15.831 63.7052 15.6935 63.5155 15.5955C63.328 15.4954 63.0862 15.4453 62.79 15.4453H61.7034V21H60.5177ZM72.1584 17.7273C72.1584 18.4325 72.0263 19.0366 71.7621 19.5394C71.5 20.0401 71.142 20.4237 70.6882 20.69C70.2365 20.9563 69.7241 21.0895 69.1509 21.0895C68.5778 21.0895 68.0643 20.9563 67.6104 20.69C67.1587 20.4215 66.8008 20.0369 66.5366 19.5362C66.2745 19.0334 66.1435 18.4304 66.1435 17.7273C66.1435 17.022 66.2745 16.419 66.5366 15.9183C66.8008 15.4155 67.1587 15.0309 67.6104 14.7646C68.0643 14.4982 68.5778 14.3651 69.1509 14.3651C69.7241 14.3651 70.2365 14.4982 70.6882 14.7646C71.142 15.0309 71.5 15.4155 71.7621 15.9183C72.0263 16.419 72.1584 17.022 72.1584 17.7273ZM70.9663 17.7273C70.9663 17.2308 70.8885 16.8121 70.733 16.4712C70.5795 16.1282 70.3665 15.8693 70.0938 15.6946C69.821 15.5178 69.5067 15.4293 69.1509 15.4293C68.7951 15.4293 68.4808 15.5178 68.2081 15.6946C67.9354 15.8693 67.7212 16.1282 67.5657 16.4712C67.4123 16.8121 67.3356 17.2308 67.3356 17.7273C67.3356 18.2237 67.4123 18.6435 67.5657 18.9865C67.7212 19.3274 67.9354 19.5863 68.2081 19.7631C68.4808 19.9379 68.7951 20.0252 69.1509 20.0252C69.5067 20.0252 69.821 19.9379 70.0938 19.7631C70.3665 19.5863 70.5795 19.3274 70.733 18.9865C70.8885 18.6435 70.9663 18.2237 70.9663 17.7273ZM73.2794 21V14.4545H75.7851C76.2581 14.4545 76.6512 14.5291 76.9644 14.6783C77.2797 14.8253 77.5152 15.0266 77.6707 15.2823C77.8284 15.538 77.9072 15.8278 77.9072 16.1516C77.9072 16.418 77.8561 16.646 77.7538 16.8356C77.6515 17.0231 77.5141 17.1754 77.3415 17.2926C77.1689 17.4098 76.9761 17.494 76.7631 17.5451V17.609C76.9953 17.6218 77.218 17.6932 77.431 17.8232C77.6462 17.951 77.822 18.1321 77.9584 18.3665C78.0947 18.6009 78.1629 18.8842 78.1629 19.2166C78.1629 19.5554 78.0809 19.8601 77.9168 20.1307C77.7528 20.3991 77.5056 20.6112 77.1753 20.7667C76.8451 20.9222 76.4296 21 75.9289 21H73.2794ZM74.4651 20.0092H75.7403C76.1707 20.0092 76.4807 19.9272 76.6704 19.7631C76.8621 19.5969 76.958 19.3839 76.958 19.1239C76.958 18.93 76.9101 18.7553 76.8142 18.5998C76.7183 18.4421 76.5819 18.3185 76.4051 18.229C76.2282 18.1374 76.0173 18.0916 75.7723 18.0916H74.4651V20.0092ZM74.4651 17.2383H75.6381C75.8426 17.2383 76.0269 17.201 76.191 17.1264C76.355 17.0497 76.4839 16.9421 76.5777 16.8036C76.6736 16.663 76.7215 16.4968 76.7215 16.305C76.7215 16.0515 76.632 15.8427 76.453 15.6786C76.2762 15.5146 76.0131 15.4325 75.6636 15.4325H74.4651V17.2383ZM79.9966 16.9826H81.6586C82.1593 16.9826 82.5886 17.0646 82.9466 17.2287C83.3066 17.3906 83.5826 17.6197 83.7743 17.9158C83.9661 18.212 84.062 18.5604 84.062 18.9609C84.062 19.3636 83.9661 19.7184 83.7743 20.0252C83.5826 20.3299 83.3066 20.5685 82.9466 20.7411C82.5886 20.9137 82.1593 21 81.6586 21H79.2072V14.4545H80.3961V20.0284H81.6586C81.9228 20.0284 82.1465 19.9783 82.3297 19.8782C82.513 19.7781 82.6515 19.646 82.7452 19.4819C82.8411 19.3178 82.889 19.1399 82.889 18.9482C82.889 18.6712 82.7825 18.4357 82.5694 18.2418C82.3585 18.0458 82.0549 17.9478 81.6586 17.9478H79.9966V16.9826ZM85.8166 14.4545V21H84.6277V14.4545H85.8166ZM88.0953 14.4545L89.5368 16.8516H89.5879L91.0357 14.4545H92.3876L90.3709 17.7273L92.4196 21H91.0453L89.5879 18.619H89.5368L88.0794 21H86.7115L88.7793 17.7273L86.737 14.4545H88.0953ZM40.2205 33.5788V31.0316H40.6584C40.8054 30.9144 40.9428 30.7493 41.0707 30.5362C41.1985 30.3232 41.3072 30.0312 41.3967 29.6605C41.4862 29.2898 41.5479 28.8104 41.582 28.2223L41.7546 25.4545H45.9382V31.0316H46.6669V33.5724H45.5291V32H41.3583V33.5788H40.2205ZM42.0391 31.0316H44.8004V26.4485H42.8221L42.7198 28.2223C42.6921 28.6676 42.6474 29.0661 42.5856 29.4176C42.5238 29.7692 42.446 30.0792 42.3523 30.3477C42.2585 30.614 42.1541 30.842 42.0391 31.0316ZM47.6329 32V25.4545H51.89V26.4485H48.8186V28.2255H51.6695V29.2195H48.8186V31.006H51.9156V32H47.6329ZM52.6746 32V31.0156L52.86 31.006C53.1114 30.9911 53.3106 30.9006 53.4577 30.7344C53.6068 30.5682 53.7165 30.3008 53.7868 29.9322C53.8593 29.5636 53.9072 29.0692 53.9307 28.4492L54.0393 25.4545H58.3284V32H57.1682V26.4293H55.1452L55.0429 28.8168C55.0131 29.5327 54.9342 30.1261 54.8064 30.5969C54.6807 31.0678 54.474 31.4194 54.1863 31.6516C53.9008 31.8839 53.5035 32 52.9942 32H52.6746Z" fill="black"/>
<path d="M31.4024 18.977H27.3386V17.3435H31.4023C31.7324 17.3435 31.9999 17.0759 31.9999 16.7459V11.56C31.9999 11.2299 31.7324 10.9624 31.4023 10.9624H2.5976C2.26754 10.9624 2 11.2299 2 11.56V16.7459C2 17.0759 2.26754 17.3435 2.5976 17.3435H6.66136V18.977H2.5976C2.26754 18.977 2 19.2446 2 19.5746V21.7126C2 22.0426 2.26754 22.3102 2.5976 22.3102H6.66136V25.8427H6.48212C6.15206 25.8427 5.88452 26.1103 5.88452 26.4403C5.88452 26.7704 6.15206 27.0379 6.48212 27.0379H8.03591C8.36596 27.0379 8.6335 26.7704 8.6335 26.4403C8.6335 26.1103 8.36596 25.8427 8.03591 25.8427H7.85655V22.3102H26.1433V25.8427H25.9641C25.634 25.8427 25.3665 26.1103 25.3665 26.4403C25.3665 26.7704 25.634 27.0379 25.9641 27.0379H27.5179C27.8479 27.0379 28.1155 26.7704 28.1155 26.4403C28.1155 26.1103 27.8479 25.8427 27.5179 25.8427H27.3386V22.3102H31.4024C31.7325 22.3102 32 22.0427 32 21.7126V19.5746C32 19.2446 31.7325 18.977 31.4024 18.977ZM3.19525 16.1483V12.1576H30.8047V16.1482H3.19525V16.1483ZM26.1433 18.977H7.85655V17.3435H26.1433V18.977ZM30.8047 21.1151H3.19525V20.1722H30.8047L30.8047 21.1151Z" fill="black"/>
<path d="M7.25971 13.4722C6.92965 13.4722 6.66211 13.7397 6.66211 14.0698V14.249C6.66211 14.5791 6.92965 14.8466 7.25971 14.8466C7.58976 14.8466 7.8573 14.5791 7.8573 14.249V14.0698C7.85736 13.7396 7.58982 13.4722 7.25971 13.4722Z" fill="black"/>
<path d="M26.7402 13.4722C26.4101 13.4722 26.1426 13.7397 26.1426 14.0698V14.249C26.1426 14.5791 26.4101 14.8466 26.7402 14.8466C27.0702 14.8466 27.3378 14.5791 27.3378 14.249V14.0698C27.3378 13.7396 27.0702 13.4722 26.7402 13.4722Z" fill="black"/>
</svg>
